<svg fill="#ffffff" width="197" height="35" viewBox="0 0 197 35" xmlns="http://www.w3.org/2000/svg">
<path d="M3.07467 19.4485C4.77276 19.4485 6.14933 18.072 6.14933 16.3739C6.14933 14.6758 4.77276 13.2992 3.07467 13.2992C1.37657 13.2992 0 14.6758 0 16.3739C0 18.072 1.37657 19.4485 3.07467 19.4485Z"/>
<path d="M3.07467 26.7467C4.77276 26.7467 6.14933 25.3701 6.14933 23.672C6.14933 21.9739 4.77276 20.5973 3.07467 20.5973C1.37657 20.5973 0 21.9739 0 23.672C0 25.3701 1.37657 26.7467 3.07467 26.7467Z"/>
<path d="M10.3736 26.7467C12.0717 26.7467 13.4483 25.3701 13.4483 23.672C13.4483 21.9739 12.0717 20.5973 10.3736 20.5973C8.67552 20.5973 7.29895 21.9739 7.29895 23.672C7.29895 25.3701 8.67552 26.7467 10.3736 26.7467Z"/>
<path d="M3.07467 12.1496C4.77276 12.1496 6.14933 10.773 6.14933 9.07495C6.14933 7.37686 4.77276 6.00028 3.07467 6.00028C1.37657 6.00028 0 7.37686 0 9.07495C0 10.773 1.37657 12.1496 3.07467 12.1496Z"/>
<path d="M10.3736 19.4485C12.0717 19.4485 13.4483 18.072 13.4483 16.3739C13.4483 14.6758 12.0717 13.2992 10.3736 13.2992C8.67552 13.2992 7.29895 14.6758 7.29895 16.3739C7.29895 18.072 8.67552 19.4485 10.3736 19.4485Z"/>
<path d="M17.6713 34.0456C19.3694 34.0456 20.746 32.669 20.746 30.9709C20.746 29.2728 19.3694 27.8963 17.6713 27.8963C15.9733 27.8963 14.5967 29.2728 14.5967 30.9709C14.5967 32.669 15.9733 34.0456 17.6713 34.0456Z"/>
<path d="M3.07467 34.0456C4.77276 34.0456 6.14933 32.669 6.14933 30.9709C6.14933 29.2728 4.77276 27.8963 3.07467 27.8963C1.37657 27.8963 0 29.2728 0 30.9709C0 32.669 1.37657 34.0456 3.07467 34.0456Z"/>
<path d="M17.6713 12.1496C19.3694 12.1496 20.746 10.773 20.746 9.07495C20.746 7.37686 19.3694 6.00028 17.6713 6.00028C15.9733 6.00028 14.5967 7.37686 14.5967 9.07495C14.5967 10.773 15.9733 12.1496 17.6713 12.1496Z"/>
<path d="M17.6713 12.1496C19.3694 12.1496 20.746 10.773 20.746 9.07495C20.746 7.37686 19.3694 6.00028 17.6713 6.00028C15.9733 6.00028 14.5967 7.37686 14.5967 9.07495C14.5967 10.773 15.9733 12.1496 17.6713 12.1496Z"/>
<path d="M17.6713 12.1496C19.3694 12.1496 20.746 10.773 20.746 9.07495C20.746 7.37686 19.3694 6.00028 17.6713 6.00028C15.9733 6.00028 14.5967 7.37686 14.5967 9.07495C14.5967 10.773 15.9733 12.1496 17.6713 12.1496Z"/>
<path d="M24.969 19.4485C26.667 19.4485 28.0436 18.072 28.0436 16.3739C28.0436 14.6758 26.667 13.2992 24.969 13.2992C23.2709 13.2992 21.8943 14.6758 21.8943 16.3739C21.8943 18.072 23.2709 19.4485 24.969 19.4485Z"/>
<path d="M24.969 26.7467C26.667 26.7467 28.0436 25.3701 28.0436 23.672C28.0436 21.9739 26.667 20.5973 24.969 20.5973C23.2709 20.5973 21.8943 21.9739 21.8943 23.672C21.8943 25.3701 23.2709 26.7467 24.969 26.7467Z"/>
<path d="M24.969 12.1496C26.667 12.1496 28.0436 10.773 28.0436 9.07495C28.0436 7.37686 26.667 6.00028 24.969 6.00028C23.2709 6.00028 21.8943 7.37686 21.8943 9.07495C21.8943 10.773 23.2709 12.1496 24.969 12.1496Z"/>
<path d="M24.969 34.0456C26.667 34.0456 28.0436 32.669 28.0436 30.9709C28.0436 29.2728 26.667 27.8963 24.969 27.8963C23.2709 27.8963 21.8943 29.2728 21.8943 30.9709C21.8943 32.669 23.2709 34.0456 24.969 34.0456Z"/>
<g clip-path="url(#clip0_280_18)">
<path d="M49.7912 7.12898H47.0924C46.6468 7.12898 46.2608 7.43839 46.1603 7.87724L43.6969 18.7223C43.5964 19.1611 43.2105 19.4705 42.7648 19.4705H42.5703C42.0431 19.4705 41.6131 19.0411 41.6131 18.5076V8.08877C41.6131 7.55836 41.1863 7.12582 40.656 7.12582H37.9571C37.4299 7.12582 37 7.5552 37 8.08877V32.172C37 32.7024 37.4268 33.1349 37.9571 33.1349H40.6623C41.1895 33.1349 41.6194 32.7055 41.6194 32.172V24.541C41.6194 24.0106 42.0462 23.578 42.5765 23.578H42.8025C43.2199 23.578 43.587 23.8496 43.7126 24.2474L46.3204 32.4624C46.4459 32.8602 46.8162 33.1318 47.2305 33.1318H50.0517C50.7044 33.1318 51.1657 32.4877 50.9586 31.8657L47.5788 21.7216C47.5223 21.548 47.5129 21.3617 47.5568 21.1849L50.7233 8.31925C50.8739 7.71307 50.4157 7.12582 49.7944 7.12582L49.7912 7.12898Z"/>
<path d="M55.1324 33.1318H57.9034C58.4306 33.1318 58.8605 32.816 58.8605 32.4277V14.7915C58.8637 14.4032 58.4369 14.0875 57.9065 14.0875H55.1355C54.6083 14.0875 54.1784 14.4032 54.1784 14.7915V32.4277C54.1752 32.816 54.602 33.1318 55.1324 33.1318Z"/>
<path d="M63.6526 19.1074V21.8953C63.6526 22.4257 63.9664 22.8582 64.3524 22.8582H72.4175C72.8035 22.8582 73.1173 22.4288 73.1173 21.8953V19.1074C73.1173 18.577 72.8035 18.1445 72.4175 18.1445H64.3524C63.9664 18.1445 63.6526 18.5739 63.6526 19.1074Z"/>
<path d="M81.6375 7.49522H78.8664C78.3392 7.49522 77.9093 7.9246 77.9093 8.45817V32.5414C77.9093 33.0718 78.3361 33.5043 78.8664 33.5043H87.4713C87.9985 33.5043 88.4285 33.0749 88.4285 32.5414V30.2524C88.4285 29.722 88.0017 29.2894 87.4713 29.2894H83.5486C83.0214 29.2894 82.5915 28.8601 82.5915 28.3265V8.45817C82.5915 7.92775 82.1647 7.49522 81.6343 7.49522H81.6375Z"/>
<path d="M101.201 1.69226L101.345 1.27551C101.559 0.650385 101.097 0 100.441 0H97.912C97.5229 0 97.1714 0.236791 97.0271 0.59987L95.6243 4.08227C95.3701 4.71372 95.8314 5.40514 96.5093 5.40514H98.1254C98.433 5.40514 98.7248 5.2536 98.9037 5.00102L101.075 1.93537C101.129 1.8596 101.169 1.77751 101.201 1.69226Z"/>
<path d="M95.6808 7.49522H92.3512C91.824 7.49522 91.394 7.9246 91.394 8.45817V32.5414C91.394 33.0718 91.8208 33.5043 92.3512 33.5043H102.01C102.538 33.5043 102.968 33.0749 102.968 32.5414V30.2524C102.968 29.722 102.541 29.2894 102.01 29.2894H96.9643C96.4371 29.2894 96.0072 28.8601 96.0072 28.3265V24.1811C96.0072 23.6507 96.434 23.2181 96.9643 23.2181H100.689C101.217 23.2181 101.646 22.7887 101.646 22.2552V20.2661C101.646 19.7357 101.22 19.3032 100.689 19.3032H96.9643C96.4371 19.3032 96.0072 18.8738 96.0072 18.3402V12.6667C96.0072 12.1363 96.434 11.7038 96.9643 11.7038H102.01C102.538 11.7038 102.968 11.2744 102.968 10.7408V8.45185C102.968 7.92144 102.541 7.4889 102.01 7.4889H95.6808V7.49522Z"/>
<path d="M119.848 7.49522H116.518C115.991 7.49522 115.561 7.9246 115.561 8.45817V32.5414C115.561 33.0718 115.988 33.5043 116.518 33.5043H126.178C126.705 33.5043 127.135 33.0749 127.135 32.5414V30.2524C127.135 29.722 126.708 29.2894 126.178 29.2894H121.131C120.604 29.2894 120.174 28.8601 120.174 28.3265V24.1811C120.174 23.6507 120.601 23.2181 121.131 23.2181H124.856C125.384 23.2181 125.814 22.7887 125.814 22.2552V20.2661C125.814 19.7357 125.387 19.3032 124.856 19.3032H121.131C120.604 19.3032 120.174 18.8738 120.174 18.3402V12.6667C120.174 12.1363 120.601 11.7038 121.131 11.7038H126.178C126.705 11.7038 127.135 11.2744 127.135 10.7408V8.45185C127.135 7.92144 126.708 7.4889 126.178 7.4889H119.848V7.49522Z"/>
<path d="M142.236 23.417C143.751 21.9142 144.511 19.5242 144.511 16.2533C144.511 14.0212 144.191 12.2689 143.554 10.9966C142.917 9.72421 141.988 8.8244 140.767 8.29399C139.546 7.76358 138.037 7.49837 136.232 7.49837H131.716C131.189 7.49837 130.759 7.92776 130.759 8.46132V32.5445C130.759 33.0749 131.186 33.5075 131.716 33.5075H134.387C134.914 33.5075 135.344 33.0781 135.344 32.5445V25.6776H136.003C136.094 25.6776 136.188 25.6776 136.276 25.6776C136.675 25.6681 137.036 25.9112 137.18 26.2838L139.785 32.9013C139.929 33.2675 140.281 33.5106 140.673 33.5106H143.45C144.137 33.5106 144.599 32.8034 144.329 32.1688L141.31 25.1156C141.137 24.7146 141.256 24.2505 141.599 23.9853C141.818 23.8117 142.032 23.6254 142.232 23.4265L142.236 23.417ZM135.84 21.7942H135.344V11.4796H136.069C137.058 11.4796 137.82 11.6122 138.36 11.8774C138.9 12.1426 139.276 12.6288 139.496 13.3361C139.716 14.0433 139.825 15.0504 139.825 16.3544C139.825 17.6583 139.703 18.7759 139.461 19.5715C139.22 20.3672 138.812 20.9386 138.241 21.2796C137.67 21.6237 136.866 21.7942 135.834 21.7942H135.84Z"/>
<path d="M158.752 20.8281C159.034 20.6513 159.304 20.465 159.546 20.2503C160.886 19.0664 161.557 17.2384 161.557 14.76C161.557 12.2815 160.958 10.343 159.759 9.20327C158.56 8.06351 156.599 7.49522 153.875 7.49522H149.162C148.634 7.49522 148.204 7.9246 148.204 8.45817V32.5414C148.204 33.0718 148.631 33.5043 149.162 33.5043H154.076C156.712 33.5043 158.686 32.9739 159.995 31.9131C161.303 30.8523 161.956 29.059 161.956 26.5395C161.956 24.882 161.648 23.5812 161.033 22.6404C160.5 21.8226 159.731 21.2291 158.755 20.8313L158.752 20.8281ZM153.743 11.3123C154.578 11.3123 155.221 11.4165 155.673 11.628C156.122 11.8395 156.436 12.2152 156.612 12.7551C156.787 13.2982 156.875 14.0654 156.875 15.0599C156.875 16.5627 156.687 17.6646 156.314 18.3592C155.94 19.0569 155.083 19.4042 153.74 19.4042H153.674C153.147 19.4042 152.717 18.9748 152.717 18.4413V12.2721C152.717 11.7417 153.144 11.3091 153.674 11.3091H153.74L153.743 11.3123ZM156.596 29.0084C156.1 29.4631 155.206 29.6873 153.91 29.6873H153.677C153.15 29.6873 152.72 29.2579 152.72 28.7243V23.8148C152.72 23.2844 153.147 22.8519 153.677 22.8519H153.91C155.206 22.8519 156.103 23.0855 156.596 23.5496C157.092 24.0137 157.337 24.9325 157.337 26.3027C157.337 27.6729 157.089 28.5538 156.596 29.0053V29.0084Z"/>
<path d="M174.085 26.1038C174.085 27.0762 174.029 27.8498 173.919 28.4244C173.809 28.999 173.611 29.4094 173.326 29.6525C173.04 29.8956 172.601 30.0188 172.008 30.0188C171.173 30.0188 170.617 29.7378 170.341 29.1726C170.065 28.6075 169.93 27.5845 169.93 26.1038V8.45817C169.93 7.92775 169.503 7.49522 168.973 7.49522H166.202C165.675 7.49522 165.245 7.9246 165.245 8.45817V26.4701C165.245 29.0811 165.785 30.988 166.861 32.1909C167.937 33.397 169.651 34 172.004 34C174.358 34 175.962 33.397 177.082 32.1909C178.202 30.9849 178.764 29.0779 178.764 26.4701V8.45817C178.764 7.92775 178.337 7.49522 177.807 7.49522H175.036C174.509 7.49522 174.079 7.9246 174.079 8.45817V26.1038H174.085Z"/>
<path d="M196.488 13.9801C196.146 12.31 195.619 11.006 194.907 10.0652C194.191 9.12434 193.284 8.46132 192.186 8.07614C191.088 7.69096 189.788 7.49522 188.295 7.49522H183.845C183.317 7.49522 182.888 7.9246 182.888 8.45817V32.5414C182.888 33.0718 183.314 33.5043 183.845 33.5043H188.295C189.788 33.5043 191.084 33.2959 192.186 32.8729C193.284 32.453 194.185 31.7394 194.888 30.7323C195.591 29.7251 196.118 28.3707 196.47 26.669C196.821 24.9672 196.997 22.8424 196.997 20.3009C196.997 17.7593 196.827 15.6503 196.485 13.9833L196.488 13.9801ZM192.054 24.9104C191.922 26.1038 191.712 27.032 191.427 27.6982C191.141 28.3612 190.752 28.8253 190.256 29.0905C189.76 29.3557 189.161 29.4883 188.458 29.4883C187.931 29.4883 187.501 29.059 187.501 28.5254V12.471C187.501 11.9406 187.927 11.508 188.458 11.508C189.161 11.508 189.76 11.6185 190.256 11.8395C190.752 12.0605 191.141 12.4805 191.427 13.0993C191.712 13.7181 191.922 14.6021 192.054 15.7545C192.186 16.9037 192.252 18.4192 192.252 20.2977C192.252 22.1762 192.186 23.7138 192.054 24.9072V24.9104Z"/>
<path d="M56.5164 12.3984C57.9636 12.3984 59.1368 11.2181 59.1368 9.76209C59.1368 8.30612 57.9636 7.12582 56.5164 7.12582C55.0692 7.12582 53.896 8.30612 53.896 9.76209C53.896 11.2181 55.0692 12.3984 56.5164 12.3984Z"/>
<path d="M107.879 33.7506H110.65C111.177 33.7506 111.607 33.4349 111.607 33.0465V15.4103C111.61 15.022 111.183 14.7063 110.653 14.7063H107.882C107.355 14.7063 106.925 15.022 106.925 15.4103V33.0465C106.922 33.4349 107.348 33.7506 107.879 33.7506Z"/>
<path d="M109.266 13.0172C110.713 13.0172 111.886 11.8369 111.886 10.3809C111.886 8.92494 110.713 7.74464 109.266 7.74464C107.819 7.74464 106.646 8.92494 106.646 10.3809C106.646 11.8369 107.819 13.0172 109.266 13.0172Z"/>
</g>
<defs>
<clipPath id="clip0_280_18">
<rect width="160" height="34" transform="translate(37)"/>
</clipPath>
</defs>
</svg>
